<svg version="1.2" xmlns="http://www.w3.org/2000/svg" viewBox="0 0 24 24" width="24" height="24"><style>.a{fill:none;stroke:#eaeff5;stroke-linecap:round;stroke-linejoin:round;stroke-width:1.5}</style><path class="a" d="m12 22c5.5 0 10-4.5 10-10 0-5.5-4.5-10-10-10-5.5 0-10 4.5-10 10 0 5.5 4.5 10 10 10z"/><path class="a" d="m8 3h1c-2 5.8-2 12.2 0 18h-1"/><path class="a" d="m15 3c1.9 5.8 1.9 12.2 0 18"/><path class="a" d="m3 16v-1c5.8 1.9 12.2 1.9 18 0v1"/><path class="a" d="m3 9c5.8-1.9 12.2-1.9 18 0"/></svg>