<svg class="icon icon-contact" version="1.2" xmlns="http://www.w3.org/2000/svg" viewBox="0 0 24 24" width="24" height="24"><style>.a{fill:#fff}</style><path fill-rule="evenodd" class="a" d="m12 22.8c-0.7 0-1.3-0.3-1.8-0.9l-1.5-2c0-0.1-0.1-0.1-0.2-0.2h-0.5c-4.2 0-6.8-1.1-6.8-6.7v-5c0-4.4 2.4-6.8 6.8-6.8h8c4.4 0 6.8 2.4 6.8 6.8v5c0 4.4-2.4 6.7-6.8 6.7h-0.5q-0.1 0.1-0.2 0.2l-1.5 2c-0.5 0.6-1.1 0.9-1.8 0.9zm-4-20.1c-3.6 0.1-5.3 1.7-5.3 5.3v5c0 4.5 1.6 5.3 5.3 5.3h0.5c0.5 0 1.1 0.2 1.4 0.7l1.5 2c0.4 0.4 0.9 0.4 1.2 0l1.5-2c0.3-0.5 0.8-0.7 1.4-0.7h0.5c3.6 0 5.3-1.7 5.3-5.3v-5c0-3.6-1.7-5.2-5.3-5.2z"/><path class="a" d="m12 12c-0.6 0-1-0.4-1-1 0-0.6 0.4-1 1-1 0.6 0 1 0.4 1 1 0 0.6-0.4 1-1 1z"/><path class="a" d="m16 12c-0.6 0-1-0.4-1-1 0-0.6 0.4-1 1-1 0.6 0 1 0.4 1 1 0 0.6-0.4 1-1 1z"/><path class="a" d="m8 12c-0.6 0-1-0.4-1-1 0-0.6 0.5-1 1-1 0.6 0 1 0.4 1 1 0 0.6-0.4 1-1 1z"/></svg>