<svg version="1.2" xmlns="http://www.w3.org/2000/svg" viewBox="0 0 24 24" width="24" height="24"><style>.a{fill:#fff}</style><path class="a" d="m12 18.8c-0.4-0.1-0.8-0.4-0.8-0.8l0.1-3c0-0.4 0.3-0.8 0.7-0.8 0.4 0 0.8 0.4 0.8 0.8v3c0 0.4-0.4 0.7-0.8 0.7z"/><path fill-rule="evenodd" class="a" d="m17.6 22.6h-11.2c-1.8 0-3.5-1.4-3.8-3.2l-1.3-8c-0.2-1.2 0.4-2.8 1.4-3.6l6.9-5.6c1.3-1 3.5-1 4.8 0l6.9 5.6c1 0.8 1.6 2.4 1.4 3.6l-1.3 8c-0.3 1.7-2 3.2-3.8 3.2zm-5.6-19.7c-0.5 0-1.1 0.2-1.5 0.5l-6.9 5.6c-0.5 0.4-0.9 1.5-0.8 2.2l1.3 7.9c0.2 1.1 1.2 2 2.3 2h11.2c1.1 0 2.1-0.9 2.3-2l1.3-7.9c0.1-0.7-0.3-1.8-0.8-2.2l-6.9-5.6c-0.4-0.3-1-0.5-1.5-0.5z"/></svg>