<svg version="1.2" xmlns="http://www.w3.org/2000/svg" viewBox="0 0 418 420" width="418" height="420"><style>.a{fill:#f84e77}</style><path class="a" d="m323 63.6l-90.7 60.5v116.3 116.3h29.2 29.2v-28.5-28.3l33.5-22.2 33.6-22.1v-35.6c0-28.1-0.3-35.3-1.3-34.7-0.8 0.4-15.9 10.5-33.5 22.3l-32.3 21.4v-36.8-36.9l20.9-13.6c22.7-14.9 50-32.8 81.9-53.9l20.5-13.6v-35.6c0-19.7-0.1-35.7-0.2-35.6-0.2 0-41.1 27.3-90.8 60.6z"/><path class="a" d="m181.4 157.1l-28.6 18.5-0.6 73.5c-0.5 63.9-0.8 74.3-2.4 79.3-3.5 11.6-11 19.8-23.2 25.7-10.9 5.3-20.5 6-31.4 2.8-13.2-4.1-22.3-10.4-27.2-18.9l-3-5.6-1.2-5.6-0.3-45.4-0.5-45.5-10.9 7.1c-6 3.9-19.2 12.6-29.5 19.2l-18.6 12.3v23.4c0 20.5 0.3 25.2 2.6 36.1 4 19.7 9 30.1 22.2 46.7 8.6 10.9 17.1 17.5 31.5 25.1 14.8 7.7 24.1 10.3 41.1 11 18.4 1 36.5-2.3 51.4-9.4 8.5-4 23.6-15.4 31.1-23.7 7.6-8.1 17.2-24.1 20.6-34.1 6.1-18 6.3-20 5.9-119.6l-0.3-91.5z"/></svg>