<svg class="icon icon-project" version="1.2" xmlns="http://www.w3.org/2000/svg" viewBox="0 0 24 24" width="24" height="24"><style>.a{fill:#fff}</style><path fill-rule="evenodd" class="a" d="m18.3 22.8l-12.6-0.1c-3.4 0-3.6-1.8-3.7-3.3l-0.4-5c-0.1-1 0.2-2 0.8-2.8 0.7-0.9 1.8-1.4 2.9-1.4h13.4c1.1 0 2.2 0.5 2.9 1.4l0.1 0.2c0.6 0.8 0.8 1.7 0.7 2.6l-0.4 5c-0.1 1.5-0.3 3.3-3.7 3.3zm-13-11c-0.7 0-1.3 0.3-1.7 0.9h-0.1c-0.3 0.4-0.5 1-0.4 1.6l0.4 5c0.1 1.5 0.2 2 2.2 2h12.6c2 0 2.1-0.5 2.2-2l0.4-5c0.1-0.6-0.1-1.2-0.5-1.6l-0.1-0.1c-0.4-0.5-1-0.8-1.6-0.8z"/><path class="a" d="m20.5 12.2c-0.4 0-0.8-0.3-0.8-0.7l0.1-1.8c0-3-0.6-3.5-3.5-3.5h-2.6c-1.1 0-1.5-0.4-1.9-1l-1.3-1.7c-0.5-0.6-0.6-0.7-1.5-0.7h-1.3c-2.9 0-3.4 0.5-3.4 3.5v5.1c0 0.4-0.4 0.8-0.8 0.8-0.4 0-0.7-0.4-0.7-0.8v-5.1c0-3.8 1.1-5 5-5h1.2c1.6 0 2.1 0.5 2.7 1.3l1.2 1.7c0.3 0.4 0.3 0.4 0.8 0.4h2.6c3.8 0 5 1.2 5 5v1.8c-0.1 0.4-0.4 0.7-0.8 0.7z"/><path class="a" d="m14.6 17.8l-5.2-0.1c-0.4 0-0.7-0.3-0.7-0.7 0-0.4 0.3-0.8 0.7-0.8h5.2c0.4 0 0.7 0.4 0.7 0.8 0 0.4-0.3 0.7-0.7 0.7z"/></svg>