<svg class="icon icon-home" version="1.2" xmlns="http://www.w3.org/2000/svg" viewBox="0 0 24 24" width="24" height="24"><style>.a{fill:#fff}</style><path fill-rule="evenodd" class="a" d="m12 12.8c-3.2-0.1-5.8-2.6-5.8-5.8 0-3.2 2.6-5.8 5.8-5.8 3.2 0 5.8 2.6 5.8 5.8 0 3.2-2.6 5.7-5.8 5.7zm0-10c-2.3 0-4.3 2-4.3 4.3 0 2.3 2 4.2 4.3 4.2 2.3 0 4.3-1.9 4.3-4.2 0-2.3-2-4.3-4.3-4.3z"/><path class="a" d="m20.6 22.8c-0.4-0.1-0.8-0.4-0.8-0.8 0-3.5-3.5-6.3-7.8-6.3-4.3 0-7.8 2.8-7.8 6.3 0 0.4-0.4 0.7-0.8 0.7-0.4 0-0.7-0.3-0.7-0.7 0-4.3 4.2-7.8 9.3-7.8 5.2 0 9.3 3.5 9.3 7.8 0 0.4-0.3 0.7-0.7 0.7z"/></svg>