<svg version="1.2" xmlns="http://www.w3.org/2000/svg" viewBox="0 0 1280 620" width="1280" height="620"><style>.a{fill:#fff}</style><path class="a" d="m217.2 107.5l-9.4 4-6.8-7.8 5.3-8.8 10 2.3z"/><path class="a" d="m1096.2 295l23.2 19-10.9 28-30-1.8-7.6-29z"/><path class="a" d="m710.7 73l-15.5-2.6-2.4-15.6 14.1-7.1 11.1 11.3z"/><path class="a" d="m221.7 556l2.2 5.9-5 4-5.3-3.6 1.8-6.1z"/><path class="a" d="m52.2 370l-5.2 7.1-8.3-2.7v-8.8l8.3-2.8z"/><path class="a" d="m289.4 217.5l19.2 10-19.2 10z"/><path class="a" d="m662.6 110.8l12.8 15.2-12.8 15.2z"/><path class="a" d="m1166 58.6l24 10.4-24 10.4z"/><path class="a" d="m443 72c-2.2 0-4-1.3-4-3 0-1.7 1.8-3 4-3 2.2 0 4 1.3 4 3 0 1.7-1.8 3-4 3z"/><path class="a" d="m133 387c-1.1 0-2-2.2-2-5 0-2.8 0.9-5 2-5 1.1 0 2 2.2 2 5 0 2.8-0.9 5-2 5z"/><path class="a" d="m1075 559c-1.1 0-2-2.2-2-5 0-2.8 0.9-5 2-5 1.1 0 2 2.2 2 5 0 2.8-0.9 5-2 5z"/><path class="a" d="m1192.5 447c-3.6 0-6.5-1.6-6.5-3.5 0-1.9 2.9-3.5 6.5-3.5 3.6 0 6.5 1.6 6.5 3.5 0 1.9-2.9 3.5-6.5 3.5z"/><path class="a" d="m966.7 140.3c1.2 1.6-0.3 3.7-2.1 3.2-3.4-0.9-7 0.4-8.9 3.3-1.1 1.6-3.6 0.9-3.7-1-0.2-3.5-2.6-6.5-5.9-7.5-1.9-0.6-2-3.1-0.2-3.8 3.3-1.3 5.4-4.5 5.3-7.9 0-2 2.4-2.8 3.6-1.4 2.2 2.7 5.9 3.8 9.2 2.6 1.8-0.6 3.4 1.4 2.3 3-1.9 2.9-1.7 6.7 0.4 9.5z"/><path class="a" d="m353.7 52.7c0.5 0.8-0.2 1.7-1 1.4-1.6-0.4-3.3 0.1-4.3 1.3-0.5 0.7-1.6 0.4-1.6-0.5 0-1.6-1-3.1-2.6-3.6-0.8-0.3-0.8-1.5 0.1-1.8 1.5-0.5 2.6-1.9 2.6-3.5 0-0.9 1.2-1.3 1.7-0.5 1 1.3 2.6 1.8 4.2 1.4 0.8-0.3 1.5 0.7 1 1.4-1 1.3-1 3.1-0.1 4.4z"/><path class="a" d="m204.7 358.8c0.7 0.2 0.7 1.1 0 1.4-1.2 0.4-2.1 1.5-2.1 2.8 0 0.7-0.9 1-1.3 0.5-0.8-1.1-2.1-1.5-3.4-1.1-0.7 0.2-1.2-0.6-0.8-1.2 0.7-1 0.7-2.4 0-3.5-0.4-0.6 0.1-1.3 0.8-1.1 1.3 0.3 2.6-0.1 3.4-1.1 0.4-0.6 1.3-0.3 1.3 0.4 0 1.3 0.9 2.4 2.1 2.9z"/><path class="a" d="m97 133.7c1.1 0.8 0.6 2.4-0.7 2.5-2.3 0.1-4.3 1.7-5 3.9-0.4 1.3-2.1 1.3-2.6 0.1-0.9-2.2-3-3.6-5.3-3.6-1.3 0.1-1.9-1.6-0.9-2.4 1.8-1.5 2.5-3.9 1.8-6.1-0.5-1.3 0.9-2.3 2-1.6 2 1.3 4.5 1.2 6.4-0.3 1-0.7 2.4 0.2 2.1 1.5-0.6 2.3 0.3 4.7 2.2 6z"/></svg>